<?xml version="1.0" encoding="UTF-8"?>
<svg width="752pt" height="752pt" version="1.1" viewBox="0 0 752 752" xmlns="http://www.w3.org/2000/svg">
 <defs>
  <clipPath id="a">
   <path d="m139.21 139.21h473.58v473.58h-473.58z"/>
  </clipPath>
 </defs>
 <g clip-path="url(#a)">
  <path d="m376 139.21c-62.801 0-123.03 24.949-167.43 69.355s-69.355 104.63-69.355 167.43 24.949 123.03 69.355 167.44 104.63 69.355 167.43 69.355 123.03-24.949 167.44-69.355 69.355-104.64 69.355-167.44-24.949-123.03-69.355-167.43-104.64-69.355-167.44-69.355zm113.92 249.95h-100.77v101.03c0 7.2656-5.8906 13.156-13.156 13.156s-13.152-5.8906-13.152-13.156v-101.03h-100.77c-7.2656 0-13.152-5.8906-13.152-13.156s5.8867-13.152 13.152-13.152h100.77v-100.77c0-7.2656 5.8867-13.152 13.152-13.152s13.156 5.8867 13.156 13.152v100.77h101.03c7.2656 0 13.156 5.8867 13.156 13.152s-5.8906 13.156-13.156 13.156z"/>
 </g>
</svg>
