<?xml version="1.0" encoding="UTF-8"?>
<svg width="752pt" height="752pt" version="1.1" viewBox="0 0 752 752" xmlns="http://www.w3.org/2000/svg">
 <path d="m517.3 496.38c2.8555 2.7578 4.4844 6.5469 4.5195 10.516 0.035156 3.9727-1.5273 7.7891-4.3359 10.594-2.8047 2.8086-6.6211 4.3711-10.594 4.3359-3.9688-0.035157-7.7578-1.6641-10.516-4.5195l-120.38-120.38-120.38 120.38c-2.7578 2.8555-6.5508 4.4844-10.52 4.5195-3.9688 0.035156-7.7852-1.5273-10.594-4.3359-2.8047-2.8047-4.3672-6.6211-4.332-10.594 0.035156-3.9688 1.6602-7.7578 4.5156-10.516l120.38-120.38-120.38-120.38c-3.6289-3.7617-5.0078-9.1562-3.625-14.195 1.3789-5.043 5.3164-8.9805 10.359-10.359 5.0391-1.3828 10.434-0.003906 14.195 3.625l120.38 120.38 120.38-120.38c2.7578-2.8555 6.5469-4.4805 10.516-4.5156 3.9727-0.035157 7.7891 1.5273 10.594 4.332 2.8086 2.8086 4.3711 6.625 4.3359 10.594-0.035157 3.9688-1.6641 7.7617-4.5195 10.52l-120.38 120.38z"/>
</svg>
