<?xml version="1.0" encoding="UTF-8"?>
<svg width="752pt" height="752pt" version="1.1" viewBox="0 0 752 752" xmlns="http://www.w3.org/2000/svg">
 <g>
  <path d="m462.44 535.4h-208.14c-5.6016-0.007813-10.145-4.5469-10.148-10.152v-295.53c-0.007813-3.8008 1.5078-7.4414 4.207-10.113l0.72656-0.60547 23.18-16.035c1.1445-0.88281 2.6016-1.2539 4.0273-1.0312s2.6992 1.0234 3.5195 2.2109 1.1133 2.6602 0.81641 4.0742c-0.30078 1.4141-1.1641 2.6406-2.3945 3.3984l-22.699 15.703-0.003906-0.003906c-0.55078 0.67969-0.85156 1.5234-0.85547 2.3945v295.16h207.77c0.70703-0.003906 1.3984-0.19922 2-0.57422l25.43-25.695c0.94922-1.1016 2.3164-1.7656 3.7695-1.8242 1.457-0.058594 2.8711 0.48438 3.9102 1.5078 1.0391 1.0234 1.6055 2.4297 1.5703 3.8867-0.039063 1.4531-0.67969 2.8281-1.7656 3.7969l-26.363 26.562c-2.4727 1.8477-5.4688 2.8516-8.5508 2.8633z"/>
  <path d="m247.36 523.19 49.66-49.66 7.4414 7.4414-49.66 49.66z"/>
  <path d="m491.46 201.21h-213.86c-4.6172 0.023438-8.3555 3.7617-8.375 8.3789v299.16h222.23c4.6133-0.023438 8.3516-3.7617 8.375-8.3789v-290.78c-0.023437-4.6172-3.7617-8.3555-8.375-8.3789zm-105.54 265.27c-4.9805-0.054687-9.25-3.5859-10.234-8.4727h20.465c-0.98438 4.8828-5.25 8.4141-10.23 8.4727zm26.922-36.277-0.050782 8.0781h-0.003906c-0.019531 7.6406-6.207 13.832-13.848 13.855h-26.004c-7.6445-0.019531-13.836-6.2109-13.855-13.855v-8.0781c-0.11719-9.2812-1.5156-18.5-4.1641-27.398 9.0469 3.7109 18.738 5.582 28.516 5.5039 11.629-0.10547 23.133-2.3984 33.914-6.75-2.8633 9.2852-4.3789 18.93-4.5039 28.645zm26.273-77.078c-8.6289 12.719-15.52 26.531-20.484 41.078-32.879 13.785-57.289 4.7656-65.07 1.0508-4.9648-14.926-11.953-29.105-20.77-42.133-9.4688-13.113-13.75-29.27-12.016-45.352 1.7305-16.082 9.3516-30.953 21.391-41.754 12.043-10.797 27.656-16.758 43.832-16.734 16.172 0.023437 31.766 6.0312 43.777 16.867 12.012 10.832 19.586 25.73 21.27 41.816 1.6836 16.086-2.6445 32.227-12.152 45.312z"/>
 </g>
</svg>
